<?xml version="1.0" encoding="UTF-8" standalone="no" ?>
<!DOCTYPE svg PUBLIC "-//W3C//DTD SVG 1.1//EN" "http://www.w3.org/Graphics/SVG/1.1/DTD/svg11.dtd">
<svg xmlns="http://www.w3.org/2000/svg" xmlns:xlink="http://www.w3.org/1999/xlink" version="1.1" width="1280" height="769.129219344748" viewBox="0 0 1280 769.129219344748" xml:space="preserve">
<desc>Created with Fabric.js 5.3.0</desc>
<defs>
</defs>
<g transform="matrix(1 0 0 1 640 384.564609672374)" id="background-logo"  >
<rect style="stroke: none; stroke-width: 0; stroke-dasharray: none; stroke-linecap: butt; stroke-dashoffset: 0; stroke-linejoin: miter; stroke-miterlimit: 4; fill: rgb(255,255,255); fill-opacity: 0; fill-rule: nonzero; opacity: 1;"  paint-order="stroke"  x="-664.4199900975865" y="-531.5359920780692" rx="0" ry="0" width="1328.839980195173" height="1063.0719841561383" />
</g>
<g transform="matrix(2.0443692003002663 0 0 2.0443692003002663 638.8183546022259 261.16066145069647)" id="logo-logo"  >
<g style=""  paint-order="stroke"   >
		<g transform="matrix(1.4995665786217762 0 0 1.4995665786217762 0 -2.842171e-14)"  >
<g style=""  paint-order="stroke"   >
		<g transform="matrix(1 0 0 1 28.874114070439504 11.611165235168187)"  >
<circle style="stroke: none; stroke-width: 1; stroke-dasharray: none; stroke-linecap: butt; stroke-dashoffset: 0; stroke-linejoin: miter; stroke-miterlimit: 4; fill: rgb(23,93,133); fill-rule: nonzero; opacity: 1;"  paint-order="stroke"  cx="0" cy="0" r="5.4" />
</g>
		<g transform="matrix(1 0 0 1 28.776716612287544 35.97332296365494)"  >
<path style="stroke: none; stroke-width: 1; stroke-dasharray: none; stroke-linecap: butt; stroke-dashoffset: 0; stroke-linejoin: miter; stroke-miterlimit: 4; fill: rgb(23,93,133); fill-rule: nonzero; opacity: 1;"  paint-order="stroke"  transform=" translate(-202.30260254184805, -176.16215772848676)" d="M 184.4 213.7 C 183.9 214.1 184.5 214.89999999999998 185.1 214.7 C 190.7 212.6 205.29999999999998 204.89999999999998 215.29999999999998 180.29999999999998 C 227.7 149.6 214.49999999999997 137.5 206.89999999999998 137.59999999999997 C 206.89999999999998 137.59999999999997 205.49999999999997 137.39999999999998 205.49999999999997 139.09999999999997 C 205.49999999999997 140.79999999999995 210.69999999999996 144.89999999999998 211.59999999999997 146.79999999999995 C 212.89999999999998 149.49999999999994 213.59999999999997 152.59999999999997 211.79999999999995 156.19999999999996 C 210.19999999999996 159.29999999999995 207.29999999999995 161.59999999999997 203.79999999999995 162.09999999999997 C 198.19999999999996 162.79999999999995 193.19999999999996 158.99999999999997 192.19999999999996 153.59999999999997 C 192.09999999999997 153.39999999999998 192.09999999999997 153.29999999999995 192.09999999999997 153.09999999999997 C 191.79999999999995 150.39999999999998 192.39999999999998 146.49999999999997 192.89999999999998 143.59999999999997 C 193.09999999999997 142.59999999999997 192.2 141.59999999999997 191.09999999999997 141.89999999999998 L 191.09999999999997 141.89999999999998 C 190.59999999999997 141.99999999999997 190.19999999999996 142.29999999999998 189.99999999999997 142.7 C 188.79999999999998 144.39999999999998 185.99999999999997 149.39999999999998 187.49999999999997 158.29999999999998 C 188.59999999999997 164.49999999999997 191.19999999999996 169.6 193.29999999999998 172.7 C 195.7 176.39999999999998 196.89999999999998 180.89999999999998 196.6 185.29999999999998 C 196.1 192.5 193.6 203.1 184.4 213.7 z" stroke-linecap="round" />
</g>
		<g transform="matrix(1 0 0 1 -31.625885929560496 16.111165235168187)"  >
<circle style="stroke: none; stroke-width: 1; stroke-dasharray: none; stroke-linecap: butt; stroke-dashoffset: 0; stroke-linejoin: miter; stroke-miterlimit: 4; fill: rgb(23,93,133); fill-rule: nonzero; opacity: 1;"  paint-order="stroke"  cx="0" cy="0" r="5.4" />
</g>
		<g transform="matrix(1 0 0 1 -26.739314936848416 39.15647108156878)"  >
<path style="stroke: none; stroke-width: 1; stroke-dasharray: none; stroke-linecap: butt; stroke-dashoffset: 0; stroke-linejoin: miter; stroke-miterlimit: 4; fill: rgb(23,93,133); fill-rule: nonzero; opacity: 1;"  paint-order="stroke"  transform=" translate(-146.7865709927121, -179.3453058464006)" d="M 168.7 214.9 C 169.2 215.3 168.79999999999998 216.1 168.2 215.9 C 162.39999999999998 214.6 146.7 209.20000000000002 133.29999999999998 186.3 C 116.59999999999998 157.70000000000002 127.89999999999998 143.9 135.39999999999998 142.8 C 135.39999999999998 142.8 136.79999999999998 142.4 136.99999999999997 144.10000000000002 C 137.19999999999996 145.8 132.69999999999996 150.60000000000002 132.09999999999997 152.60000000000002 C 131.19999999999996 155.50000000000003 130.89999999999998 158.60000000000002 133.29999999999995 161.90000000000003 C 135.29999999999995 164.80000000000004 138.59999999999997 166.60000000000002 142.09999999999997 166.60000000000002 C 147.69999999999996 166.50000000000003 152.09999999999997 162.00000000000003 152.29999999999995 156.50000000000003 C 152.39999999999995 156.30000000000004 152.39999999999995 156.20000000000002 152.39999999999995 156.00000000000003 C 152.29999999999995 153.30000000000004 151.09999999999994 149.50000000000003 150.19999999999996 146.70000000000002 C 149.79999999999995 145.70000000000002 150.69999999999996 144.70000000000002 151.79999999999995 144.8 L 151.79999999999995 144.8 C 152.29999999999995 144.9 152.69999999999996 145 152.99999999999994 145.4 C 154.39999999999995 146.9 157.99999999999994 151.5 157.69999999999993 160.5 C 157.59999999999994 166.8 155.59999999999994 172.2 154.09999999999994 175.6 C 152.29999999999993 179.6 151.69999999999993 184.2 152.59999999999994 188.5 C 154.2 195.6 158.1 205.7 168.7 214.9 z" stroke-linecap="round" />
</g>
		<g transform="matrix(1 0 0 1 0.32233043207401124 53.10371882274819)"  >
<path style="stroke: none; stroke-width: 1; stroke-dasharray: none; stroke-linecap: butt; stroke-dashoffset: 0; stroke-linejoin: miter; stroke-miterlimit: 4; fill: rgb(23,93,133); fill-rule: nonzero; opacity: 1;"  paint-order="stroke"  transform=" translate(-173.8482163616345, -193.29255358758002)" d="M 176.5 224.4 C 176.9 225.1 177.8 225 178.1 224.3 C 186.7 204 193.4 180.60000000000002 188.29999999999998 168.60000000000002 C 184.2 159.20000000000002 180.1 161.50000000000003 179.79999999999998 163.50000000000003 C 179.49999999999997 165.50000000000003 180.7 165.60000000000002 182.6 169.90000000000003 C 184.9 180.00000000000003 180 183.80000000000004 176.9 185.30000000000004 C 175.4 186.00000000000003 173.8 186.10000000000005 172.1 185.70000000000005 C 168.79999999999998 184.70000000000005 163.5 181.60000000000005 164.2 171.30000000000004 C 165.5 166.70000000000005 166.6 166.50000000000003 166 164.50000000000003 C 165.5 162.50000000000003 161 160.80000000000004 158.3 170.80000000000004 C 154.9 183.4 164.9 205.6 176.5 224.4 z" stroke-linecap="round" />
</g>
		<g transform="matrix(1 0 0 1 0.17411407043948657 35.511165235168164)"  >
<circle style="stroke: none; stroke-width: 1; stroke-dasharray: none; stroke-linecap: butt; stroke-dashoffset: 0; stroke-linejoin: miter; stroke-miterlimit: 4; fill: rgb(23,93,133); fill-rule: nonzero; opacity: 1;"  paint-order="stroke"  cx="0" cy="0" r="5.4" />
</g>
		<g transform="matrix(1 0 0 1 -58.200630457167776 -12.429040085079748)"  >
<path style="stroke: none; stroke-width: 1; stroke-dasharray: none; stroke-linecap: butt; stroke-dashoffset: 0; stroke-linejoin: miter; stroke-miterlimit: 4; fill: rgb(10,87,72); fill-rule: nonzero; opacity: 1;"  paint-order="stroke"  transform=" translate(-115.32525547239273, -127.75979467975208)" d="M 114.4 132.3 C 117 139.10000000000002 127.30000000000001 144.9 127.30000000000001 144.9 C 127.30000000000001 144.9 109.10000000000001 147 104.70000000000002 133.6 C 99.50000000000001 117.89999999999999 105.00000000000001 110.5 105.00000000000001 110.5 C 105.00000000000001 110.5 110.30000000000001 111.6 120.20000000000002 120.1 C 130.10000000000002 128.6 128.00000000000003 140.7 128.00000000000003 140.7 C 118.8 138.6 114.5 132.4 114.4 132.3 z" stroke-linecap="round" />
</g>
		<g transform="matrix(1 0 0 1 -30.802663876009262 -58.43135631340742)"  >
<path style="stroke: none; stroke-width: 1; stroke-dasharray: none; stroke-linecap: butt; stroke-dashoffset: 0; stroke-linejoin: miter; stroke-miterlimit: 4; fill: rgb(10,87,72); fill-rule: nonzero; opacity: 1;"  paint-order="stroke"  transform=" translate(-142.72322205355124, -81.7574784514244)" d="M 139.6 81.9 C 133.29999999999998 87.60000000000001 131.29999999999998 101.10000000000001 131.29999999999998 101.10000000000001 C 131.29999999999998 101.10000000000001 118.29999999999998 84.20000000000002 131.49999999999997 72.5 C 145.79999999999998 59.8 159.39999999999998 62.7 159.39999999999998 62.7 C 159.39999999999998 62.7 161.79999999999998 70.3 155.7 83.9 C 149.5 97.7 136.1 100.10000000000001 136.1 100.10000000000001 C 134.7 89.3 139.5 82 139.6 81.9 z" stroke-linecap="round" />
</g>
		<g transform="matrix(1 0 0 1 33.84464424244527 -48.63883476483181)"  >
<path style="stroke: none; stroke-width: 1; stroke-dasharray: none; stroke-linecap: butt; stroke-dashoffset: 0; stroke-linejoin: miter; stroke-miterlimit: 4; fill: rgb(10,87,72); fill-rule: nonzero; opacity: 1;"  paint-order="stroke"  transform=" translate(-207.37053017200577, -91.55000000000001)" d="M 209.5 95.5 C 213.9 106.9 207.6 125.9 207.6 125.9 C 207.6 125.9 234.29999999999998 112.9 226.29999999999998 88.4 C 216.89999999999998 60.00000000000001 196.29999999999998 57.2 196.29999999999998 57.2 C 196.29999999999998 57.2 188.1 65.60000000000001 186.99999999999997 87.4 C 185.89999999999998 109.4 201.79999999999998 121.4 201.79999999999998 121.4 C 211.1 108.3 209.5 95.5 209.5 95.5 z" stroke-linecap="round" />
</g>
		<g transform="matrix(1 0 0 1 -55.48430207478434 -40.73883476483182)"  >
<path style="stroke: none; stroke-width: 1; stroke-dasharray: none; stroke-linecap: butt; stroke-dashoffset: 0; stroke-linejoin: miter; stroke-miterlimit: 4; fill: rgb(10,87,72); fill-rule: nonzero; opacity: 1;"  paint-order="stroke"  transform=" translate(-118.04158385477616, -99.45)" d="M 116.9 97.7 C 115 92.8 118 84.8 118 84.8 C 118 84.8 107.5 93.3 110.7 102.9 C 114 112.5 122 114.10000000000001 122 114.10000000000001 C 122 114.10000000000001 124.4 110.9 125.8 101.7 C 127.2 92.5 120.39999999999999 86.9 120.39999999999999 86.9 C 116.4 92.4 116.9 97.8 116.9 97.7 z" stroke-linecap="round" />
</g>
		<g transform="matrix(1 0 0 1 1.4307185702770653 -70.58883476483183)"  >
<path style="stroke: none; stroke-width: 1; stroke-dasharray: none; stroke-linecap: butt; stroke-dashoffset: 0; stroke-linejoin: miter; stroke-miterlimit: 4; fill: rgb(10,87,72); fill-rule: nonzero; opacity: 1;"  paint-order="stroke"  transform=" translate(-174.95660449983757, -69.6)" d="M 175.4 73.1 C 173.70000000000002 78.5 166.1 83.69999999999999 166.1 83.69999999999999 C 166.1 83.69999999999999 180.79999999999998 83.1 184.1 72.69999999999999 C 187.4 62.29999999999998 181.4 55.499999999999986 181.4 55.499999999999986 C 181.4 55.499999999999986 177.4 56.79999999999998 170.1 63.899999999999984 C 162.79999999999998 70.99999999999999 165.2 80.39999999999998 165.2 80.39999999999998 C 172.3 78.2 175.3 73.1 175.4 73.1 z" stroke-linecap="round" />
</g>
		<g transform="matrix(1 0 0 1 -30.200310019767755 -13.638834764831813)"  >
<path style="stroke: none; stroke-width: 1; stroke-dasharray: none; stroke-linecap: butt; stroke-dashoffset: 0; stroke-linejoin: miter; stroke-miterlimit: 4; fill: rgb(10,87,72); fill-rule: nonzero; opacity: 1;"  paint-order="stroke"  transform=" translate(-143.32557590979275, -126.55000000000001)" d="M 144 129.4 C 143.6 134.70000000000002 137.5 140.9 137.5 140.9 C 137.5 140.9 150.8 137.5 151.8 127.30000000000001 C 152.9 117.10000000000001 146.10000000000002 112.20000000000002 146.10000000000002 112.20000000000002 C 146.10000000000002 112.20000000000002 142.60000000000002 114.10000000000002 137.40000000000003 122.10000000000002 C 132.20000000000005 130.10000000000002 136.20000000000005 138.10000000000002 136.20000000000005 138.10000000000002 C 142.2 134.8 144 129.5 144 129.4 z" stroke-linecap="round" />
</g>
		<g transform="matrix(1 0 0 1 1.1996899802322787 9.461165235168181)"  >
<path style="stroke: none; stroke-width: 1; stroke-dasharray: none; stroke-linecap: butt; stroke-dashoffset: 0; stroke-linejoin: miter; stroke-miterlimit: 4; fill: rgb(10,87,72); fill-rule: nonzero; opacity: 1;"  paint-order="stroke"  transform=" translate(-174.72557590979278, -149.65)" d="M 175.4 152.5 C 175 157.8 168.9 164 168.9 164 C 168.9 164 182.20000000000002 160.6 183.20000000000002 150.4 C 184.3 140.20000000000002 177.50000000000003 135.3 177.50000000000003 135.3 C 177.50000000000003 135.3 174.00000000000003 137.20000000000002 168.80000000000004 145.20000000000002 C 163.60000000000005 153.20000000000002 167.60000000000005 161.20000000000002 167.60000000000005 161.20000000000002 C 173.6 157.8 175.4 152.6 175.4 152.5 z" stroke-linecap="round" />
</g>
		<g transform="matrix(1 0 0 1 59.19101756978935 13.759338789582785)"  >
<path style="stroke: none; stroke-width: 1; stroke-dasharray: none; stroke-linecap: butt; stroke-dashoffset: 0; stroke-linejoin: miter; stroke-miterlimit: 4; fill: rgb(10,87,72); fill-rule: nonzero; opacity: 1;"  paint-order="stroke"  transform=" translate(-232.71690349934985, -153.9481735544146)" d="M 232.7 156.7 C 230.7 160.6 224.2 163.2 224.2 163.2 C 224.2 163.2 235.29999999999998 165 239.29999999999998 157.7 C 243.49999999999997 150.39999999999998 239.89999999999998 144.5 239.89999999999998 144.5 C 239.89999999999998 144.5 236.7 144.8 230.2 149.1 C 223.79999999999998 153.4 224.1 160.7 224.1 160.7 C 229.7 160.2 232.8 156.8 232.7 156.7 z" stroke-linecap="round" />
</g>
		<g transform="matrix(1 0 0 1 -2.731724596388233 -23.975047709961814)"  >
<path style="stroke: none; stroke-width: 1; stroke-dasharray: none; stroke-linecap: butt; stroke-dashoffset: 0; stroke-linejoin: miter; stroke-miterlimit: 4; fill: rgb(10,87,72); fill-rule: nonzero; opacity: 1;"  paint-order="stroke"  transform=" translate(-170.79416133317227, -116.21378705487001)" d="M 171.2 120.3 C 176.7 126.39999999999999 189.79999999999998 128.4 189.79999999999998 128.4 C 189.79999999999998 128.4 170.39999999999998 136.70000000000002 159.49999999999997 125.10000000000001 C 148.69999999999996 113.50000000000001 152.39999999999998 101.20000000000002 152.39999999999998 101.20000000000002 C 152.39999999999998 101.20000000000002 158.49999999999997 100.40000000000002 172.29999999999998 105.30000000000001 C 186.2 110.30000000000001 188.79999999999998 123.80000000000001 188.79999999999998 123.80000000000001 C 178.4 125.2 171.2 120.4 171.2 120.3 z" stroke-linecap="round" />
</g>
		<g transform="matrix(1 0 0 1 57.51630362349053 -14.163602330751644)"  >
<path style="stroke: none; stroke-width: 1; stroke-dasharray: none; stroke-linecap: butt; stroke-dashoffset: 0; stroke-linejoin: miter; stroke-miterlimit: 4; fill: rgb(10,87,72); fill-rule: nonzero; opacity: 1;"  paint-order="stroke"  transform=" translate(-231.04218955305103, -126.02523243408018)" d="M 235.1 125.8 C 240.6 121.8 243.29999999999998 111.1 243.29999999999998 111.1 C 243.29999999999998 111.1 248.49999999999997 128 237.99999999999997 136 C 227.49999999999997 144 217.49999999999997 139.9 217.49999999999997 139.9 C 217.49999999999997 139.9 217.19999999999996 134.8 222.39999999999998 123.7 C 227.59999999999997 112.60000000000001 239.09999999999997 111.5 239.09999999999997 111.5 C 239.5 120.2 234.9 125.8 235.1 125.8 z" stroke-linecap="round" />
</g>
		<g transform="matrix(1 0 0 1 -40.14817901433298 -26.094228920303067)"  >
<linearGradient id="SVGID_229853" gradientUnits="userSpaceOnUse" gradientTransform="matrix(1 0 0 1 128.65497241180344 107.08921168905752)"  x1="0" y1="0" x2="0" y2="14">
<stop offset="0%" style="stop-color:rgb(180,236,81);stop-opacity: 1"/>
<stop offset="100%" style="stop-color:rgb(66,147,33);stop-opacity: 1"/>
</linearGradient>
<path style="stroke: none; stroke-width: 1; stroke-dasharray: none; stroke-linecap: butt; stroke-dashoffset: 0; stroke-linejoin: miter; stroke-miterlimit: 4; fill: url(#SVGID_229853); fill-rule: nonzero; opacity: 1;"  paint-order="stroke"  transform=" translate(-133.37770691522752, -114.09460584452876)" d="M 134 107.1 C 131.1 107.1 126.3 108.89999999999999 130 121.1 C 139.3 115.1 138.7 110.8 137.3 108.69999999999999 C 136.6 107.6 135.4 107 134 107.1 z" stroke-linecap="round" />
</g>
		<g transform="matrix(1 0 0 1 -58.2057097053807 12.792540392476155)"  >
<linearGradient id="SVGID_229854" gradientUnits="userSpaceOnUse" gradientTransform="matrix(1 0 0 1 109.54035244835961 147.06275031461598)"  x1="0" y1="0" x2="0" y2="12">
<stop offset="0%" style="stop-color:rgb(180,236,81);stop-opacity: 1"/>
<stop offset="100%" style="stop-color:rgb(66,147,33);stop-opacity: 1"/>
</linearGradient>
<path style="stroke: none; stroke-width: 1; stroke-dasharray: none; stroke-linecap: butt; stroke-dashoffset: 0; stroke-linejoin: miter; stroke-miterlimit: 4; fill: url(#SVGID_229854); fill-rule: nonzero; opacity: 1;"  paint-order="stroke"  transform=" translate(-115.3201762241798, -152.98137515730798)" d="M 110.1 149.3 C 108.89999999999999 152 108.5 157 121.1 158.9 C 119.6 148.1 115.5 146.8 113 147.1 C 111.7 147.2 110.6 148.1 110.1 149.3 z" stroke-linecap="round" />
</g>
		<g transform="matrix(1 0 0 1 -12.791408418559001 -1.7834216623455745)"  >
<linearGradient id="SVGID_229855" gradientUnits="userSpaceOnUse" gradientTransform="matrix(1 0 0 1 155.76687349398588 131.7)"  x1="0" y1="0" x2="0" y2="13">
<stop offset="0%" style="stop-color:rgb(180,236,81);stop-opacity: 1"/>
<stop offset="100%" style="stop-color:rgb(66,147,33);stop-opacity: 1"/>
</linearGradient>
<path style="stroke: none; stroke-width: 1; stroke-dasharray: none; stroke-linecap: butt; stroke-dashoffset: 0; stroke-linejoin: miter; stroke-miterlimit: 4; fill: url(#SVGID_229855); fill-rule: nonzero; opacity: 1;"  paint-order="stroke"  transform=" translate(-160.7344775110015, -138.40541310248625)" d="M 164.5 143.6 C 166.2 141.4 167.9 136.5 156 131.7 C 154.8 142.5 158.5 144.79999999999998 161 145.1 C 162.3 145.2 163.6 144.6 164.5 143.6 z" stroke-linecap="round" />
</g>
		<g transform="matrix(1 0 0 1 -7.363314485427736 -79.18883476483182)"  >
<linearGradient id="SVGID_229856" gradientUnits="userSpaceOnUse" gradientTransform="matrix(1 0 0 1 162.5507925880776 55.5)"  x1="0" y1="0" x2="0" y2="11">
<stop offset="0%" style="stop-color:rgb(180,236,81);stop-opacity: 1"/>
<stop offset="100%" style="stop-color:rgb(66,147,33);stop-opacity: 1"/>
</linearGradient>
<path style="stroke: none; stroke-width: 1; stroke-dasharray: none; stroke-linecap: butt; stroke-dashoffset: 0; stroke-linejoin: miter; stroke-miterlimit: 4; fill: url(#SVGID_229856); fill-rule: nonzero; opacity: 1;"  paint-order="stroke"  transform=" translate(-166.16257144413277, -61)" d="M 166.7 55.5 C 164.5 55.6 160.7 56.8 163.6 66.5 C 170.7 62 170.2 58.6 169.2 57 C 168.7 56 167.7 55.6 166.7 55.5 z" stroke-linecap="round" />
</g>
		<g transform="matrix(1 0 0 1 55.971825616359126 -56.81992009322029)"  >
<linearGradient id="SVGID_229857" gradientUnits="userSpaceOnUse" gradientTransform="matrix(1 0 0 1 226.3729741122474 78.6)"  x1="0" y1="0" x2="0" y2="10">
<stop offset="0%" style="stop-color:rgb(180,236,81);stop-opacity: 1"/>
<stop offset="100%" style="stop-color:rgb(66,147,33);stop-opacity: 1"/>
</linearGradient>
<path style="stroke: none; stroke-width: 1; stroke-dasharray: none; stroke-linecap: butt; stroke-dashoffset: 0; stroke-linejoin: miter; stroke-miterlimit: 4; fill: url(#SVGID_229857); fill-rule: nonzero; opacity: 1;"  paint-order="stroke"  transform=" translate(-229.49771154591963, -83.36891467161153)" d="M 231.3 87.5 C 232.8 86.2 234.5 83.3 227.3 78.6 C 225.10000000000002 85.6 227.3 87.5 228.9 88 C 229.7 88.3 230.6 88.1 231.3 87.5 z" stroke-linecap="round" />
</g>
		<g transform="matrix(1 0 0 1 36.86422308568831 -9.618861896089072)"  >
<linearGradient id="SVGID_229858" gradientUnits="userSpaceOnUse" gradientTransform="matrix(1 0 0 1 205.8802180304976 126.49999999999999)"  x1="0" y1="0" x2="0" y2="8">
<stop offset="0%" style="stop-color:rgb(180,236,81);stop-opacity: 1"/>
<stop offset="100%" style="stop-color:rgb(66,147,33);stop-opacity: 1"/>
</linearGradient>
<path style="stroke: none; stroke-width: 1; stroke-dasharray: none; stroke-linecap: butt; stroke-dashoffset: 0; stroke-linejoin: miter; stroke-miterlimit: 4; fill: url(#SVGID_229858); fill-rule: nonzero; opacity: 1;"  paint-order="stroke"  transform=" translate(-210.3901090152488, -130.56997286874275)" d="M 207.3 134.1 C 209.20000000000002 135.1 212.8 135.7 214.9 126.5 C 206.9 127 205.70000000000002 130 205.9 131.8 C 205.9 132.8 206.5 133.7 207.3 134.1 z" stroke-linecap="round" />
</g>
		<g transform="matrix(1 0 0 1 19.630364070439498 -6.17048361691775)"  >
<linearGradient id="SVGID_229859" gradientUnits="userSpaceOnUse" gradientTransform="matrix(1 0 0 1 186.2 129.7961930727618)"  x1="0" y1="0" x2="0" y2="8">
<stop offset="0%" style="stop-color:rgb(180,236,81);stop-opacity: 1"/>
<stop offset="100%" style="stop-color:rgb(66,147,33);stop-opacity: 1"/>
</linearGradient>
<path style="stroke: none; stroke-width: 1; stroke-dasharray: none; stroke-linecap: butt; stroke-dashoffset: 0; stroke-linejoin: miter; stroke-miterlimit: 4; fill: url(#SVGID_229859); fill-rule: nonzero; opacity: 1;"  paint-order="stroke"  transform=" translate(-193.15625, -134.01835114791407)" d="M 199.8 132.8 C 198.70000000000002 130.3 195.4 126.80000000000001 186.20000000000002 134.5 C 194.60000000000002 140.3 198.10000000000002 138.1 199.50000000000003 136.2 C 200.2 135.2 200.3 133.8 199.8 132.8 z" stroke-linecap="round" />
</g>
		<g transform="matrix(1 0 0 1 53.98661407043949 5.674799314950292)"  >
<linearGradient id="SVGID_229860" gradientUnits="userSpaceOnUse" gradientTransform="matrix(1 0 0 1 221.22499999999997 142.0561980465264)"  x1="0" y1="0" x2="0" y2="8">
<stop offset="0%" style="stop-color:rgb(180,236,81);stop-opacity: 1"/>
<stop offset="100%" style="stop-color:rgb(66,147,33);stop-opacity: 1"/>
</linearGradient>
<path style="stroke: none; stroke-width: 1; stroke-dasharray: none; stroke-linecap: butt; stroke-dashoffset: 0; stroke-linejoin: miter; stroke-miterlimit: 4; fill: url(#SVGID_229860); fill-rule: nonzero; opacity: 1;"  paint-order="stroke"  transform=" translate(-227.5125, -145.86363407978212)" d="M 221.6 148.2 C 222.79999999999998 149.89999999999998 226.1 151.89999999999998 233.79999999999998 143 C 225.6 140.6 222.7 143.3 221.6 145.3 C 221.1 146.3 221.1 147.4 221.6 148.2 z" stroke-linecap="round" />
</g>
		<g transform="matrix(1 0 0 1 -1.2740134934969092 -45.76436469886792)"  >
<linearGradient id="SVGID_229861" gradientUnits="userSpaceOnUse" gradientTransform="matrix(1 0 0 1 163.3 88.283135209764)"  x1="0" y1="0" x2="0" y2="12">
<stop offset="0%" style="stop-color:rgb(180,236,81);stop-opacity: 1"/>
<stop offset="100%" style="stop-color:rgb(66,147,33);stop-opacity: 1"/>
</linearGradient>
<path style="stroke: none; stroke-width: 1; stroke-dasharray: none; stroke-linecap: butt; stroke-dashoffset: 0; stroke-linejoin: miter; stroke-miterlimit: 4; fill: url(#SVGID_229861); fill-rule: nonzero; opacity: 1;"  paint-order="stroke"  transform=" translate(-172.2518724360636, -94.4244700659639)" d="M 181.2 95.7 C 181.29999999999998 92 179.5 85.60000000000001 163.29999999999998 89.5 C 170.2 101.8 175.79999999999998 101.3 178.7 99.8 C 180.2 99 181.1 97.4 181.2 95.7 z" stroke-linecap="round" />
</g>
		<g transform="matrix(1 0 0 1 61.300320267872735 -35.39722167388055)"  >
<linearGradient id="SVGID_229862" gradientUnits="userSpaceOnUse" gradientTransform="matrix(1 0 0 1 228.13248260852708 96.48322618190255)"  x1="0" y1="0" x2="0" y2="17">
<stop offset="0%" style="stop-color:rgb(180,236,81);stop-opacity: 1"/>
<stop offset="100%" style="stop-color:rgb(66,147,33);stop-opacity: 1"/>
</linearGradient>
<path style="stroke: none; stroke-width: 1; stroke-dasharray: none; stroke-linecap: butt; stroke-dashoffset: 0; stroke-linejoin: miter; stroke-miterlimit: 4; fill: url(#SVGID_229862); fill-rule: nonzero; opacity: 1;"  paint-order="stroke"  transform=" translate(-234.82620619743324, -104.79161309095127)" d="M 237.6 96.7 C 233.9 95.9 227.4 96.5 228.2 113.1 C 241.6 108.6 242.2 103 241.2 99.89999999999999 C 240.6 98.3 239.2 97.1 237.6 96.7 z" stroke-linecap="round" />
</g>
</g>
</g>
</g>
</g>
<g transform="matrix(2.0443692003002663 0 0 2.0443692003002663 640 596.7235515832954)" id="text-logo"  >
<g style=""  paint-order="stroke"   >
		<g transform="matrix(1 0 0 1 -5.684342e-14 0)" id="text-logo-path-0"  >
<path style="stroke: none; stroke-width: 0; stroke-dasharray: none; stroke-linecap: butt; stroke-dashoffset: 0; stroke-linejoin: miter; stroke-miterlimit: 4; fill: rgb(21,88,133); fill-rule: nonzero; opacity: 1;"  paint-order="stroke"  transform=" translate(-315.165, 9.52)" d="M 2.11 -23.26 L 2.11 0 L 7.79 0 L 7.79 -23.26 Z M 21.59 -7.48 L 25.77 0 L 32.23 0 L 27.37 -8.77 C 29.61 -10.23 30.91 -12.72 30.91 -15.37 C 30.91 -19.75 27.4 -23.26 23.05 -23.26 L 13.19 -23.26 L 13.19 0 L 18.87 0 L 18.87 -7.48 Z M 18.87 -12.85 L 18.87 -17.88 L 23.05 -17.88 C 24.48 -17.88 25.57 -16.8 25.57 -15.37 C 25.57 -14.01 24.41 -12.85 23.05 -12.85 Z M 49.88 -23.26 L 44.88 -8.3 L 39.95 -23.26 L 34 -23.26 L 41.72 0 L 48.11 0 L 55.83 -23.26 Z M 59.16 -23.26 L 59.16 0 L 64.84 0 L 64.84 -23.26 Z M 83.47 -23.26 L 83.47 -11.42 L 75.92 -23.26 L 70.24 -23.26 L 70.24 0 L 75.92 0 L 75.92 -13.29 L 84.42 0 L 89.15 0 L 89.15 -23.26 Z M 116.62 -10.68 L 116.62 -12.99 L 103.77 -12.99 L 103.77 -7.62 L 109.75 -7.62 C 108.56 -6.09 106.76 -5.2 104.82 -5.2 C 101.35 -5.2 98.46 -8.09 98.46 -11.53 C 98.46 -14.99 101.39 -17.85 104.82 -17.85 C 106.93 -17.85 108.6 -16.93 109.89 -15.27 L 114.31 -18.77 C 112 -21.76 108.63 -23.49 104.82 -23.49 C 98.16 -23.49 92.82 -18.12 92.82 -11.53 C 92.82 -4.9 98.26 0.48 104.82 0.48 C 111.01 0.48 116.62 -4.35 116.62 -10.68 Z M 134.98 -17.88 L 134.98 -23.26 L 117.61 -23.26 L 117.61 -17.88 L 123.49 -17.88 L 123.49 0 L 129.13 0 L 129.13 -17.88 Z M 148.21 0.48 C 154.87 0.48 160.17 -4.93 160.17 -11.53 C 160.17 -18.22 154.84 -23.49 148.21 -23.49 C 141.54 -23.49 136.2 -18.12 136.2 -11.53 C 136.2 -4.96 141.58 0.48 148.21 0.48 Z M 141.85 -11.53 C 141.85 -14.99 144.77 -17.85 148.21 -17.85 C 151.71 -17.85 154.5 -14.99 154.5 -11.53 C 154.5 -8.06 151.71 -5.2 148.21 -5.2 C 144.74 -5.2 141.85 -8.09 141.85 -11.53 Z M 177.07 -23.26 L 177.07 -11.42 L 169.52 -23.26 L 163.85 -23.26 L 163.85 0 L 169.52 0 L 169.52 -13.29 L 178.02 0 L 182.75 0 L 182.75 -23.26 Z M 196.79 -11.53 C 196.79 -4.9 202.23 0.48 208.79 0.48 C 213.18 0.48 217.33 -2.04 219.37 -5.92 L 214.37 -8.64 C 213.35 -6.56 211.11 -5.2 208.79 -5.2 C 205.33 -5.2 202.44 -8.09 202.44 -11.53 C 202.44 -14.99 205.36 -17.85 208.79 -17.85 C 211.11 -17.85 213.21 -16.63 214.34 -14.59 L 219.3 -17.24 C 217.23 -21.11 213.18 -23.49 208.79 -23.49 C 202.2 -23.49 196.79 -18.19 196.79 -11.53 Z M 233.55 0.48 C 240.21 0.48 245.51 -4.93 245.51 -11.53 C 245.51 -18.22 240.18 -23.49 233.55 -23.49 C 226.88 -23.49 221.54 -18.12 221.54 -11.53 C 221.54 -4.96 226.92 0.48 233.55 0.48 Z M 227.19 -11.53 C 227.19 -14.99 230.11 -17.85 233.55 -17.85 C 237.05 -17.85 239.84 -14.99 239.84 -11.53 C 239.84 -8.06 237.05 -5.2 233.55 -5.2 C 230.08 -5.2 227.19 -8.09 227.19 -11.53 Z M 267.48 -7.82 L 267.48 -23.26 L 261.83 -23.26 L 261.83 -7.82 C 261.83 -5.85 259.93 -5.17 258.23 -5.17 C 256.67 -5.17 254.66 -5.98 254.66 -7.82 L 254.66 -23.26 L 249.02 -23.26 L 249.02 -7.82 C 249.02 -2.65 253.4 0.48 258.23 0.48 C 263.09 0.48 267.48 -2.75 267.48 -7.82 Z M 285.23 -23.26 L 285.23 -11.42 L 277.68 -23.26 L 272 -23.26 L 272 0 L 277.68 0 L 277.68 -13.29 L 286.18 0 L 290.9 0 L 290.9 -23.26 Z M 303.62 0.48 C 307.94 0.48 312.12 -1.94 312.12 -6.6 C 312.12 -11.19 308.52 -13.09 304.61 -14.28 C 303.55 -14.62 302.77 -14.93 302.26 -15.16 C 301.55 -15.5 301.04 -15.88 301.04 -16.73 C 301.04 -17.71 302.29 -18.09 303.08 -18.09 C 304.91 -18.09 305.83 -17.27 306.61 -15.67 L 311.44 -18.5 C 309.77 -21.93 306.88 -23.7 303.08 -23.7 C 298.93 -23.7 295.39 -21.01 295.39 -16.73 C 295.39 -12.34 298.52 -10.61 302.29 -9.49 C 303.48 -9.15 304.33 -8.84 304.91 -8.6 C 305.69 -8.3 306.48 -7.89 306.48 -6.94 C 306.48 -5.68 304.78 -5.07 303.76 -5.07 C 301.55 -5.07 300.02 -5.92 299.17 -8.02 L 294.41 -5.24 C 295.94 -1.33 299.54 0.48 303.62 0.48 Z M 321.13 -5.34 L 321.13 -9.21 L 329.22 -9.21 L 329.22 -14.55 L 321.13 -14.55 L 321.13 -17.88 L 330.04 -17.88 L 330.04 -23.26 L 315.45 -23.26 L 315.45 0 L 330.21 0 L 330.21 -5.34 Z M 340.24 -5.34 L 340.24 -23.26 L 334.56 -23.26 L 334.56 0 L 349.25 0 L 349.25 -5.34 Z M 352.82 -23.26 L 352.82 0 L 358.5 0 L 358.5 -23.26 Z M 377.13 -23.26 L 377.13 -11.42 L 369.58 -23.26 L 363.9 -23.26 L 363.9 0 L 369.58 0 L 369.58 -13.29 L 378.08 0 L 382.81 0 L 382.81 -23.26 Z M 410.28 -10.68 L 410.28 -12.99 L 397.43 -12.99 L 397.43 -7.62 L 403.41 -7.62 C 402.22 -6.09 400.42 -5.2 398.48 -5.2 C 395.01 -5.2 392.12 -8.09 392.12 -11.53 C 392.12 -14.99 395.05 -17.85 398.48 -17.85 C 400.59 -17.85 402.25 -16.93 403.55 -15.27 L 407.97 -18.77 C 405.65 -21.76 402.29 -23.49 398.48 -23.49 C 391.82 -23.49 386.48 -18.12 386.48 -11.53 C 386.48 -4.9 391.92 0.48 398.48 0.48 C 404.67 0.48 410.28 -4.35 410.28 -10.68 Z M 423.3 -11.53 C 423.3 -4.9 428.74 0.48 435.3 0.48 C 439.69 0.48 443.84 -2.04 445.88 -5.92 L 440.88 -8.64 C 439.86 -6.56 437.61 -5.2 435.3 -5.2 C 431.83 -5.2 428.94 -8.09 428.94 -11.53 C 428.94 -14.99 431.87 -17.85 435.3 -17.85 C 437.61 -17.85 439.72 -16.63 440.84 -14.59 L 445.81 -17.24 C 443.73 -21.11 439.69 -23.49 435.3 -23.49 C 428.71 -23.49 423.3 -18.19 423.3 -11.53 Z M 454.75 -5.34 L 454.75 -9.21 L 462.84 -9.21 L 462.84 -14.55 L 454.75 -14.55 L 454.75 -17.88 L 463.66 -17.88 L 463.66 -23.26 L 449.07 -23.26 L 449.07 0 L 463.83 0 L 463.83 -5.34 Z M 481.41 -23.26 L 481.41 -11.42 L 473.86 -23.26 L 468.18 -23.26 L 468.18 0 L 473.86 0 L 473.86 -13.29 L 482.36 0 L 487.08 0 L 487.08 -23.26 Z M 507.76 -17.88 L 507.76 -23.26 L 490.38 -23.26 L 490.38 -17.88 L 496.26 -17.88 L 496.26 0 L 501.91 0 L 501.91 -17.88 Z M 516.12 -5.34 L 516.12 -9.21 L 524.21 -9.21 L 524.21 -14.55 L 516.12 -14.55 L 516.12 -17.88 L 525.03 -17.88 L 525.03 -23.26 L 510.44 -23.26 L 510.44 0 L 525.2 0 L 525.2 -5.34 Z M 537.64 -7.48 L 541.82 0 L 548.28 0 L 543.42 -8.77 C 545.67 -10.23 546.96 -12.72 546.96 -15.37 C 546.96 -19.75 543.46 -23.26 539.1 -23.26 L 529.24 -23.26 L 529.24 0 L 534.92 0 L 534.92 -7.48 Z M 534.92 -12.85 L 534.92 -17.88 L 539.1 -17.88 C 540.53 -17.88 541.62 -16.8 541.62 -15.37 C 541.62 -14.01 540.46 -12.85 539.1 -12.85 Z M 553.52 0.34 L 552.23 3.33 L 553.83 4.66 L 555.87 2.11 C 557.06 0.58 557.4 -0.44 557.46 -2.38 C 557.46 -4.18 556.38 -5.3 554.57 -5.3 C 552.74 -5.3 551.75 -4.28 551.75 -2.45 C 551.75 -1.77 551.79 -1.29 551.85 -0.99 C 552.02 -0.14 552.81 0.1 553.52 0.34 Z M 571.98 -23.26 L 571.98 0 L 577.66 0 L 577.66 -23.26 Z M 596.29 -23.26 L 596.29 -11.42 L 588.74 -23.26 L 583.07 -23.26 L 583.07 0 L 588.74 0 L 588.74 -13.29 L 597.24 0 L 601.97 0 L 601.97 -23.26 Z M 605.64 -11.53 C 605.64 -4.9 611.08 0.48 617.64 0.48 C 622.03 0.48 626.18 -2.04 628.22 -5.92 L 623.22 -8.64 C 622.2 -6.56 619.96 -5.2 617.64 -5.2 C 614.18 -5.2 611.29 -8.09 611.29 -11.53 C 611.29 -14.99 614.21 -17.85 617.64 -17.85 C 619.96 -17.85 622.06 -16.63 623.19 -14.59 L 628.15 -17.24 C 626.08 -21.11 622.03 -23.49 617.64 -23.49 C 611.05 -23.49 605.64 -18.19 605.64 -11.53 Z" stroke-linecap="round" />
</g>
</g>
</g>
<g transform="matrix(2.0443692003002663 0 0 2.0443692003002663 622.6799858663796 701.7365886568498)" id="tagline-95ac43f4-1ff6-4da0-b23e-f90d3dd7fb33-logo"  >
<g style=""  paint-order="stroke"   >
		<g transform="matrix(1 0 0 1 0 0)" id="tagline-95ac43f4-1ff6-4da0-b23e-f90d3dd7fb33-logo-path-0"  >
<linearGradient id="SVGID_229863" gradientUnits="userSpaceOnUse" gradientTransform="matrix(1 0 0 1 0.7900000000000063 -23.5)"  x1="-0.742496978759732" y1="-5.515620000000013" x2="-0.742496978759732" y2="31.484379999999987">
<stop offset="0%" style="stop-color:rgb(180,236,81);stop-opacity: 1"/>
<stop offset="100%" style="stop-color:rgb(66,147,33);stop-opacity: 1"/>
</linearGradient>
<filter id="SVGID_229851" y="-103.57709987463436%" height="307.15419974926874%" x="-33.7797988149373%" width="167.5595976298746%" >
	<feGaussianBlur in="SourceAlpha" stdDeviation="10"></feGaussianBlur>
	<feOffset dx="0" dy="0" result="oBlur" ></feOffset>
	<feFlood flood-color="rgb(21,57,133)" flood-opacity="1"/>
	<feComposite in2="oBlur" operator="in" />
	<feMerge>
		<feMergeNode></feMergeNode>
		<feMergeNode in="SourceGraphic"></feMergeNode>
	</feMerge>
</filter>
<path style="stroke: rgb(22,91,130); stroke-width: 2; stroke-dasharray: none; stroke-linecap: butt; stroke-dashoffset: 0; stroke-linejoin: miter; stroke-miterlimit: 4; fill: url(#SVGID_229863); fill-rule: nonzero; opacity: 1;filter: url(#SVGID_229851);"  paint-order="stroke"  transform=" translate(-73.36000000000001, 11.535)" d="M 1.55 -16.96 C 1.62 -9.17 10.03 -9.24 10.03 -4.82 C 10.03 -3.37 9.14 -2.84 7.92 -2.84 C 6.67 -2.84 5.74 -3.4 5.71 -5.51 C 5.71 -6.9 6.07 -7.13 6.47 -7.49 L 6.17 -7.95 L 1.09 -7.95 L 0.79 -7.49 C 1.25 -7.19 1.72 -6.73 1.72 -5.15 C 1.72 -1.82 3.89 0.4 7.76 0.4 C 12.87 0.4 14.09 -2.87 14.09 -5.48 C 14.09 -12.11 5.48 -13.63 5.48 -17.62 C 5.48 -19.21 6.07 -20.26 7.59 -20.26 C 8.68 -20.26 9.67 -19.5 9.7 -17.59 C 9.74 -16.2 9.34 -15.97 8.94 -15.61 L 9.24 -15.15 L 14.32 -15.15 L 14.62 -15.61 C 14.16 -15.91 13.7 -16.37 13.7 -17.95 C 13.7 -21.29 12.04 -23.5 7.95 -23.5 C 3.2 -23.5 1.52 -20.69 1.55 -16.96 Z M 18.81 -4.39 C 18.81 -1.55 18.48 -0.99 17.72 -0.46 L 18.02 0 L 24.49 0 L 24.78 -0.46 C 24.02 -0.99 23.69 -1.55 23.69 -4.39 L 23.69 -18.71 C 23.69 -21.55 24.02 -22.11 24.78 -22.64 L 24.49 -23.1 L 18.02 -23.1 L 17.72 -22.64 C 18.48 -22.11 18.81 -21.55 18.81 -18.71 Z M 37.88 0 L 42.74 0 L 43 -0.46 C 42.24 -0.99 41.91 -1.55 41.91 -4.39 L 41.91 -18.71 C 41.91 -21.55 42.24 -22.11 43 -22.64 L 42.74 -23.1 L 37.88 -23.1 L 37.59 -22.64 C 38.35 -22.11 38.68 -21.55 38.68 -18.71 L 38.68 -10.79 L 34.32 -23.1 L 27.75 -23.1 L 27.49 -22.64 C 28.25 -22.11 28.58 -21.55 28.58 -18.71 L 28.58 -4.39 C 28.58 -1.55 28.25 -0.99 27.49 -0.46 L 27.75 0 L 32.6 0 L 32.9 -0.46 C 32.14 -0.99 31.81 -1.55 31.81 -4.39 L 31.81 -17.13 Z M 55.41 -3.04 C 52.73 -3.04 51.05 -6.57 51.05 -11.85 C 51.05 -16.9 52.31 -20.26 54.09 -20.26 C 54.95 -20.26 55.84 -19.7 55.87 -17.59 C 55.87 -16.2 55.51 -15.97 55.11 -15.61 L 55.41 -15.15 L 60.49 -15.15 L 60.79 -15.61 C 60.32 -15.91 59.86 -16.37 59.86 -17.95 C 59.86 -21.29 58.34 -23.5 54.55 -23.5 C 49.5 -23.5 46.1 -19.07 46.1 -11.55 C 46.1 -4.22 49.63 0.4 54.98 0.4 C 56.27 0.4 56.66 -0.17 57.59 -0.17 C 58.08 -0.17 58.64 0 59.07 0.4 L 59.53 0.1 L 59.53 -4.88 L 59.07 -5.18 C 58.31 -3.89 57.16 -3.04 55.41 -3.04 Z M 64.19 0 L 76.1 0 L 76.43 -3.99 L 75.97 -4.29 C 75.31 -3.47 74.78 -3.17 72.27 -3.17 L 69.89 -3.17 C 69.86 -3.53 69.86 -3.93 69.86 -4.39 L 69.86 -10.36 L 75.44 -9.97 L 75.44 -13.13 L 69.86 -12.74 L 69.86 -18.71 C 69.86 -19.17 69.86 -19.57 69.89 -19.93 L 72.27 -19.93 C 74.78 -19.93 75.31 -19.64 75.97 -18.81 L 76.43 -19.11 L 76.1 -23.1 L 64.19 -23.1 L 63.89 -22.64 C 64.65 -22.11 64.98 -21.55 64.98 -18.71 L 64.98 -4.39 C 64.98 -1.55 64.65 -0.99 63.89 -0.46 Z M 90.78 -15.94 C 91.18 -16.37 91.81 -16.53 92.93 -16.53 C 95.3 -16.53 96.06 -15.54 96.06 -14.88 C 96.06 -13.89 95.3 -13.53 93.16 -13.27 L 93.16 -3.6 C 93.16 -1.32 92.83 -0.89 92.07 -0.46 L 92.37 0 L 98.77 0 L 99.07 -0.46 C 98.31 -0.99 97.98 -1.55 97.98 -4.39 L 97.98 -23.2 L 96.49 -23.5 C 95.54 -21.58 94.55 -20.23 92.5 -20.23 C 91.38 -20.23 91.01 -20.39 90.78 -20.82 L 90.32 -20.49 L 90.32 -16.24 Z M 108.8 0.43 C 114.61 0.43 116 -6.6 116 -13.13 C 116 -20.36 113.52 -23.5 109.16 -23.5 C 104.81 -23.5 102.33 -20.26 102.33 -14.82 C 102.33 -10.53 103.72 -7.85 107.02 -7.85 C 109.03 -7.85 110.09 -8.25 111.24 -9.7 C 111.24 -5.12 110.12 -2.81 108.7 -2.81 C 107.84 -2.81 107.32 -3.33 107.28 -4.62 C 107.28 -5.58 107.65 -5.71 108.04 -6.07 L 107.75 -6.53 L 102.66 -6.53 L 102.37 -6.07 C 102.83 -5.78 103.29 -5.41 103.29 -4.13 C 103.29 -1.39 105.14 0.43 108.8 0.43 Z M 111.05 -15.87 C 111.05 -12.84 110.68 -11.58 109.26 -11.58 C 107.81 -11.58 107.48 -12.84 107.48 -15.87 C 107.48 -18.91 107.81 -20.16 109.26 -20.16 C 110.68 -20.16 111.05 -18.91 111.05 -15.87 Z M 127.05 -23.5 C 121.21 -23.5 119.82 -16.47 119.82 -9.93 C 119.82 -2.71 122.3 0.43 126.65 0.43 C 131.01 0.43 133.49 -2.81 133.49 -8.25 C 133.49 -12.54 132.1 -15.21 128.8 -15.21 C 126.79 -15.21 125.73 -14.82 124.58 -13.37 C 124.58 -17.95 125.7 -20.26 127.12 -20.26 C 127.97 -20.26 128.5 -19.73 128.54 -18.45 C 128.54 -17.49 128.17 -17.36 127.78 -17 L 128.07 -16.53 L 133.16 -16.53 L 133.45 -17 C 132.99 -17.29 132.53 -17.66 132.53 -18.94 C 132.53 -21.68 130.71 -23.5 127.05 -23.5 Z M 124.81 -7.19 C 124.81 -10.23 125.14 -11.48 126.59 -11.48 C 128.01 -11.48 128.34 -10.23 128.34 -7.19 C 128.34 -4.16 128.01 -2.9 126.59 -2.9 C 125.14 -2.9 124.81 -4.16 124.81 -7.19 Z M 137.64 -15.94 C 138.04 -16.37 138.67 -16.53 139.79 -16.53 C 142.16 -16.53 142.92 -15.54 142.92 -14.88 C 142.92 -13.89 142.16 -13.53 140.02 -13.27 L 140.02 -3.6 C 140.02 -1.32 139.69 -0.89 138.93 -0.46 L 139.23 0 L 145.63 0 L 145.93 -0.46 C 145.17 -0.99 144.84 -1.55 144.84 -4.39 L 144.84 -23.2 L 143.35 -23.5 C 142.4 -21.58 141.41 -20.23 139.36 -20.23 C 138.24 -20.23 137.87 -20.39 137.64 -20.82 L 137.18 -20.49 L 137.18 -16.24 Z" stroke-linecap="round" />
</g>
</g>
</g>
</svg>